<svg xmlns="http://www.w3.org/2000/svg" xmlns:xlink="http://www.w3.org/1999/xlink" width="278" height="119" viewBox="0 0 278 119">
  <defs>
    <filter id="Tracciato_5" x="0" y="5" width="278" height="114" filterUnits="userSpaceOnUse">
      <feOffset dy="3" input="SourceAlpha"/>
      <feGaussianBlur stdDeviation="3" result="blur"/>
      <feFlood flood-opacity="0.161"/>
      <feComposite operator="in" in2="blur"/>
      <feComposite in="SourceGraphic"/>
    </filter>
    <filter id="Play" x="89" y="15" width="101" height="83" filterUnits="userSpaceOnUse">
      <feOffset dy="3" input="SourceAlpha"/>
      <feGaussianBlur stdDeviation="3" result="blur-2"/>
      <feFlood flood-opacity="0.161"/>
      <feComposite operator="in" in2="blur-2"/>
      <feComposite in="SourceGraphic"/>
    </filter>
  </defs>
  <g id="Raggruppa_12" data-name="Raggruppa 12" transform="translate(-864 -320)">
    <g id="Raggruppa_11" data-name="Raggruppa 11" transform="translate(181 -12)">
      <g transform="matrix(1, 0, 0, 1, 683, 332)" filter="url(#Tracciato_5)">
        <path id="Tracciato_5-2" data-name="Tracciato 5" d="M33,0H227a33,33,0,0,1,33,33V63a33,33,0,0,1-33,33H33A33,33,0,0,1,0,63V33A33,33,0,0,1,33,0Z" transform="translate(9 11)" fill="#af4702"/>
      </g>
      <g id="Rettangolo_14" data-name="Rettangolo 14" transform="translate(692 332)" fill="#f60" stroke="#fff" stroke-width="1">
        <rect width="260" height="96" rx="33" stroke="none"/>
        <rect x="0.5" y="0.5" width="259" height="95" rx="32.5" fill="none"/>
      </g>
    </g>
    <g transform="matrix(1, 0, 0, 1, 864, 320)" filter="url(#Play)">
      <text id="Play-2" data-name="Play" transform="translate(98 21)" fill="#fff" font-size="40" font-family="ComicSansMS-Bold, Comic Sans MS" font-weight="700"><tspan x="0" y="44">Play</tspan></text>
    </g>
  </g>
</svg>
